<svg width="401" height="513" viewBox="0 0 401 513" fill="none" xmlns="http://www.w3.org/2000/svg">
<path d="M239.762 296.078L386.065 149.774L239.762 149.774L239.762 296.078Z" fill="black" stroke="black" stroke-width="1.57232"/>
<path d="M90.7744 445.066L237.078 298.762L90.7744 298.762L90.7744 445.066Z" stroke="black" stroke-width="1.57232"/>
<path d="M91.8857 447.75L238.189 594.054L238.189 447.75L91.8857 447.75Z" stroke="black" stroke-width="1.57232"/>
<circle cx="74.494" cy="74.494" r="73.7078" transform="matrix(0 1 1 0 -57.1377 148.988)" stroke="black" stroke-width="1.57232"/>
<circle cx="18.6235" cy="18.6235" r="17.8373" transform="matrix(0 1 1 0 238.976 0)" fill="black" stroke="black" stroke-width="1.57232"/>
<circle cx="74.494" cy="74.494" r="73.7078" transform="matrix(0 1 1 0 252.012 321.255)" stroke="black" stroke-width="1.57232"/>
<rect x="0.786162" y="0.786162" width="147.416" height="147.416" transform="matrix(0 1 1 0 -59 446.964)" fill="black" stroke="black" stroke-width="1.57232"/>
</svg>
